<svg xmlns="http://www.w3.org/2000/svg" viewBox="0 0 1000 700">
<rect width="1000" height="700" fill="#d8d0c3"/><rect y="520" width="1000" height="180" fill="#77746e"/>
<path d="M90 520V155L500 60l410 95v365Z" fill="#f1eee8"/>
<path d="M160 520V205L500 125l340 80v315Z" fill="#9aa19d"/>
<g fill="#2f3535"><rect x="210" y="250" width="70" height="210"/><rect x="330" y="220" width="70" height="240"/><rect x="450" y="190" width="70" height="270"/><rect x="570" y="220" width="70" height="240"/><rect x="690" y="250" width="70" height="210"/></g>
<g fill="#d7c7a5"><rect x="225" y="270" width="40" height="80"/><rect x="345" y="240" width="40" height="90"/><rect x="465" y="210" width="40" height="100"/><rect x="585" y="240" width="40" height="90"/><rect x="705" y="270" width="40" height="80"/></g>
</svg>